<svg id="Layer_1" data-name="Layer 1" xmlns="http://www.w3.org/2000/svg" viewBox="0 0 821.78 802.72"><defs><style>.cls-1{fill:#003699;}.cls-2{fill:#fff;}</style></defs><path class="cls-1" d="M250.4,258S297,224.17,356.56,245.64c0,0,33.12,12.07,57.1,36.43,0,0,24.46-25.09,65.47-39.32s91,1.93,112.92,28,34.74,51.88,26.54,107.61-37.64,96.51-91.93,145-48.19,44.64-113,91.93c0,0-72.54-51.15-115.73-94.1s-76.48-79.62-87.34-134.87S212.4,286.3,250.4,258Z"/><polygon class="cls-2" points="269.58 468.64 269.58 428.83 299.99 428.83 299.99 399.88 323.33 399.88 323.33 459.05 327.49 458.87 327.49 301.44 355.36 301.44 355.36 458.69 359.49 458.51 359.49 352.83 391.55 353.01 391.55 458.69 394.99 458.69 394.99 374 426.84 374.18 426.84 320.44 475.69 320.44 475.69 458.51 493.79 458.51 493.79 364.95 516.95 328.04 516.95 458.33 526.72 458.33 526.72 386.67 558.03 386.49 558.03 468.64 334 468.64 269.58 468.64"/></svg>