<svg id="Layer_1" data-name="Layer 1" xmlns="http://www.w3.org/2000/svg" viewBox="0 0 2585.87 1258.22"><defs><style>.cls-1{fill:#fff;}.cls-2{fill:#003699;}</style></defs><path class="cls-1" d="M755,578.65c-5.41-98.89-86-100.25-86-100.25H589.69V685.69H660.3a95.64,95.64,0,0,0,44.36-10.4C759,646.84,755,578.65,755,578.65ZM689.64,639a48.12,48.12,0,0,1-26.45,7.43H629.65V517h29c17.83,0,34.68,8.89,44.05,24.07,5.86,9.5,10.35,22.68,11,41C713.66,582.05,717.59,620.71,689.64,639Z"/><path class="cls-1" d="M860,529.88a79.95,79.95,0,1,0,80,80A79.92,79.92,0,0,0,860,529.88Zm0,118.34a41.55,41.55,0,1,1,41.58-41.55A41.55,41.55,0,0,1,860,648.22Z"/><path class="cls-1" d="M971.11,529.88h39.29v16.94s49.68-49.23,93.94,5c0,0,33.42-42,77.74-17.2,14.93,8.35,22.75,25.49,23,42.59l1.75,108.53h-38.39l-.45-101s-5.87-23.48-25.29-23c-18.42.43-28,11.74-32.52,27.1l-.45,96.88H1070V590.17s-4.52-29.35-28-28.45a29.44,29.44,0,0,0-19.89,8.54,35.49,35.49,0,0,0-10.33,25.68l.42,89.76h-41.1Z"/><rect class="cls-1" x="1242.54" y="475" width="39.29" height="39.29"/><rect class="cls-1" x="1242.54" y="532.81" width="39.29" height="152.88"/><path class="cls-1" d="M1313.45,532.81h37.49V545s36.13-30.71,67.29-14.45c0,0,26.65,9,30.72,33.87V685.7h-37v-101s-5.87-26.19-30.71-22.13-28,25.3-28,25.3l-.45,97.78h-39.3Z"/><path class="cls-1" d="M1630.07,531.47A79.94,79.94,0,1,0,1710,611.39,79.92,79.92,0,0,0,1630.07,531.47Zm0,118.34a41.57,41.57,0,1,1,41.55-41.55A41.55,41.55,0,0,1,1630.07,649.81Z"/><rect class="cls-1" x="1485.75" y="475" width="39.29" height="39.29"/><rect class="cls-1" x="1485.75" y="532.81" width="39.29" height="152.88"/><path class="cls-1" d="M1742.14,532.81h37.49V545s36.13-30.71,67.29-14.45c0,0,26.65,9,30.71,33.87V685.7h-37v-101s-5.87-26.19-30.71-22.13-28,25.3-28,25.3l-.46,97.78h-39.29Z"/><path class="cls-1" d="M2162.09,525.81s-32.52-38.61-81.29-19c0,0-50.14,21-47.43,74.52s52.62,63.9,52.62,63.9,49.23,14.68,76.1-21.9l45.62.23s-16.49,50.13-76.1,61.87-107.16-20.93-120.93-49.39c0,0-19.42-25.92-15.58-76.05s50.47-91.28,93.83-95.19c0,0,48.32-9.93,84.68,20.33,0,0,18.74,13.09,32.29,40.87Z"/><rect class="cls-1" x="2217.98" y="473.99" width="40.48" height="40.48"/><rect class="cls-1" x="2217.98" y="531.23" width="38.95" height="155.14"/><polygon class="cls-1" points="2358.56 531.23 2358.56 565.12 2335.18 565.12 2335.18 686.38 2295.22 686.38 2295.22 565.12 2276.6 565.12 2276.6 531.23 2295.22 531.23 2295.22 474 2335.18 474 2335.18 531.23 2358.56 531.23"/><polygon class="cls-1" points="2366.91 531.23 2425.51 673.5 2393.34 741.59 2432.97 741.59 2531.2 531.23 2489.54 531.23 2446.86 624.39 2407.22 531.23 2366.91 531.23"/><path class="cls-1" d="M92.5,395.88s53-38.43,120.77-14c0,0,37.67,13.72,65,41.44,0,0,27.82-28.54,74.48-44.73s103.47,2.19,128.45,31.83,39.52,59,30.19,122.42S468.52,642.62,406.77,697.79,352,748.57,278.22,802.36c0,0-82.52-58.19-131.65-107s-87-90.57-99.35-153.43S49.28,428.13,92.5,395.88Z"/><polygon class="cls-2" points="114.33 635.55 114.33 590.27 148.91 590.27 148.91 557.33 175.46 557.33 175.46 624.64 180.2 624.44 180.2 445.35 211.9 445.35 211.9 624.23 216.6 624.03 216.6 503.81 253.07 504.02 253.07 624.23 256.98 624.23 256.98 527.9 293.21 528.1 293.21 466.96 348.79 466.96 348.79 624.03 369.37 624.03 369.37 517.6 395.72 475.61 395.72 623.82 406.84 623.82 406.84 542.3 442.45 542.1 442.45 635.55 187.61 635.55 114.33 635.55"/></svg>