<svg id="Layer_1" data-name="Layer 1" xmlns="http://www.w3.org/2000/svg" viewBox="0 0 821.78 802.72"><defs><style>.cls-1{fill:#003699;}.cls-2{fill:#4a4a4a;}</style></defs><path class="cls-1" d="M224.27,359.6c-5.89-7-19.3-11.33-30.3-7.51a49,49,0,0,0-17.57,10.55,47,47,0,0,0-15.32-9.78,32.41,32.41,0,0,0-28.49,3.31c-10.2,7.6-13.6,19.62-10.69,34.44s11.85,24.67,23.44,36.2,31.06,25.25,31.06,25.25c17.39-12.69,15.76-11.66,30.32-24.67s22.47-24,24.67-38.91S230.16,366.59,224.27,359.6Zm-9.13,53.11H137.73V402h8.16v-7.78h6.27v15.89l1.11-.06V367.84h7.48V410l1.11-.05V381.63l8.6.05V410h.93V387.31l8.54.05V372.93h13.12V410h4.85V384.88l6.22-9.91v35h2.62V390.71l8.4,0Z"/><path class="cls-2" d="M286.69,402.61c-1.28-23.41-20.37-23.73-20.37-23.73H247.57v49.06h16.71a22.55,22.55,0,0,0,10.49-2.46C287.63,418.74,286.69,402.61,286.69,402.61Zm-15.47,14.27a11.4,11.4,0,0,1-6.26,1.76H257V388h6.87a12.2,12.2,0,0,1,10.42,5.69,19.29,19.29,0,0,1,2.59,9.7S277.83,412.56,271.22,416.88Z"/><path class="cls-2" d="M311.54,391.06A18.92,18.92,0,1,0,330.46,410,18.92,18.92,0,0,0,311.54,391.06Zm0,28a9.84,9.84,0,1,1,9.84-9.83A9.83,9.83,0,0,1,311.54,419.07Z"/><path class="cls-2" d="M337.83,391.06h9.3v4s11.76-11.65,22.23,1.18c0,0,7.91-9.94,18.4-4.07,3.53,2,5.39,6,5.45,10.08l.42,25.68h-9.09l-.11-23.89s-1.39-5.56-6-5.45c-4.36.1-6.63,2.78-7.7,6.41l-.1,22.93h-9.41V405.33s-1.07-6.94-6.63-6.73a7,7,0,0,0-4.71,2,8.42,8.42,0,0,0-2.44,6.08l.1,21.24h-9.73Z"/><rect class="cls-2" x="402.07" y="378.08" width="9.3" height="9.3"/><rect class="cls-2" x="402.07" y="391.76" width="9.3" height="36.18"/><path class="cls-2" d="M418.85,391.76h8.87v2.88s8.55-7.26,15.93-3.42c0,0,6.31,2.14,7.27,8v28.7h-8.77V404.05s-1.39-6.2-7.26-5.24a7.63,7.63,0,0,0-6.63,6l-.11,23.14h-9.3Z"/><path class="cls-2" d="M493.78,391.44a18.92,18.92,0,1,0,18.92,18.91A18.92,18.92,0,0,0,493.78,391.44Zm0,28a9.84,9.84,0,1,1,9.84-9.84A9.83,9.83,0,0,1,493.78,419.45Z"/><rect class="cls-2" x="459.63" y="378.08" width="9.3" height="9.3"/><rect class="cls-2" x="459.63" y="391.76" width="9.3" height="36.18"/><path class="cls-2" d="M520.31,391.76h8.87v2.88s8.55-7.26,15.92-3.42c0,0,6.31,2.14,7.27,8v28.7h-8.76V404.05s-1.39-6.2-7.27-5.24a7.63,7.63,0,0,0-6.63,6l-.1,23.14h-9.3Z"/><path class="cls-2" d="M619.69,390.1S612,381,600.45,385.61c0,0-11.86,5-11.22,17.64s12.45,15.12,12.45,15.12,11.65,3.48,18-5.18l10.8.05a23.89,23.89,0,0,1-18,14.65c-14.11,2.78-25.36-5-28.62-11.69,0,0-4.6-6.14-3.69-18s12-21.6,22.21-22.53c0,0,11.43-2.35,20,4.81a26.84,26.84,0,0,1,7.64,9.67Z"/><rect class="cls-2" x="632.92" y="377.84" width="9.58" height="9.58"/><rect class="cls-2" x="632.92" y="391.38" width="9.22" height="36.72"/><polygon class="cls-2" points="666.19 391.38 666.19 399.4 660.66 399.4 660.66 428.1 651.2 428.1 651.2 399.4 646.79 399.4 646.79 391.38 651.2 391.38 651.2 377.84 660.66 377.84 660.66 391.38 666.19 391.38"/><polygon class="cls-2" points="668.17 391.38 682.03 425.05 674.42 441.17 683.8 441.17 707.05 391.38 697.19 391.38 687.09 413.43 677.71 391.38 668.17 391.38"/></svg>